<?xml version="1.0" encoding="utf-8"?>
<!-- Generator: Adobe Illustrator 19.0.0, SVG Export Plug-In . SVG Version: 6.00 Build 0)  -->
<svg version="1.1" xmlns="http://www.w3.org/2000/svg" xmlns:xlink="http://www.w3.org/1999/xlink" x="0px" y="0px"
	 viewBox="0 0 512 512" style="enable-background:new 0 0 512 512;" xml:space="preserve">
<style type="text/css">
	.st0{enable-background:new    ;}
	.st1{fill-rule:evenodd;clip-rule:evenodd;fill:#FDDF6D;}
	.st2{fill-rule:evenodd;clip-rule:evenodd;fill:#464857;}
	.st3{fill-rule:evenodd;clip-rule:evenodd;fill:#F7D162;}
	.st4{fill-rule:evenodd;clip-rule:evenodd;fill:#5DADEC;}
</style>
<g id="Ellipse_1_copy_1_" class="st0">
	<g id="Ellipse_1_copy">
		<g>
			<ellipse class="st1" cx="256" cy="256" rx="256.5" ry="256"/>
		</g>
	</g>
</g>
<g id="Color_Fill_1_1_" class="st0">
	<g id="Color_Fill_1">
		<g>
			<path class="st2" d="M232.3,249.2c3.7-4.4,5.6-9.9,5.6-16.4c0-6.3-1.9-11.8-5.6-16.4c-3.7-4.6-8.1-6.9-13-6.9H118.6
				c-5.4,0-9.8,2.3-13.2,6.8c-3.4,4.5-5,10-5,16.6c0,6.8,1.7,12.4,5,16.6c3.4,4.3,7.7,6.4,13.2,6.4h100.7
				C224.2,255.7,228.6,253.6,232.3,249.2z M292.2,177.2h100.7c4.9,0,9.2-2.2,13-6.6c3.7-4.4,5.6-9.9,5.6-16.4
				c0-6.3-1.9-11.8-5.6-16.4c-3.7-4.6-8.1-6.9-13-6.9H292.2c-5.4,0-9.8,2.3-13.2,6.8c-3.4,4.5-5,10-5,16.6c0,6.8,1.7,12.4,5,16.6
				C282.3,175.1,286.7,177.2,292.2,177.2z M118.6,177.2h100.7c4.9,0,9.2-2.2,13-6.6c3.7-4.4,5.6-9.9,5.6-16.4
				c0-6.3-1.9-11.8-5.6-16.4c-3.7-4.6-8.1-6.9-13-6.9H118.6c-5.4,0-9.8,2.3-13.2,6.8c-3.4,4.5-5,10-5,16.6c0,6.8,1.7,12.4,5,16.6
				C108.8,175.1,113.2,177.2,118.6,177.2z M254.3,325c-33.1,0-75.8,26.8-75.8,50.3c0,10.1,5.6,11.7,18.5,11.7c12.9,0,40.7-5,57.3-5
				s46.3,5,55.6,5c9.3,0,23.6-1.4,23.6-10.1C333.5,346.8,287.4,325,254.3,325z M392.9,209.3H292.2c-5.4,0-9.8,2.3-13.2,6.8
				c-3.4,4.5-5,10-5,16.6c0,6.8,1.7,12.4,5,16.6c3.4,4.3,7.7,6.4,13.2,6.4h100.7c4.9,0,9.2-2.2,13-6.6c3.7-4.4,5.6-9.9,5.6-16.4
				c0-6.3-1.9-11.8-5.6-16.4C402.1,211.7,397.8,209.3,392.9,209.3z"/>
		</g>
	</g>
</g>
<g id="Ellipse_1_copy_2_1_" class="st0">
	<g id="Ellipse_1_copy_2">
		<g>
			<path class="st3" d="M308.9,5.5c72.4,51.6,120.6,144,120.6,249.5c0,107.4-50,201.3-124.6,252.3
				C423.2,484.6,512.5,380.7,512.5,256C512.5,132.7,425.2,29.8,308.9,5.5z"/>
		</g>
	</g>
</g>
<g id="Shape_1_1_" class="st0">
	<g id="Shape_1">
		<g>
			<path class="st4" d="M148.5,282c-13.5,0-70,94-70,141c0,47,35,69,72,69c37,0,69-26.5,69-69C219.5,380.5,162,282,148.5,282z"/>
		</g>
	</g>
</g>
</svg>
