<?xml version="1.0" encoding="utf-8"?>
<!-- Generator: Adobe Illustrator 19.0.0, SVG Export Plug-In . SVG Version: 6.00 Build 0)  -->
<svg version="1.1" id="Ellipse_1_1_" xmlns="http://www.w3.org/2000/svg" xmlns:xlink="http://www.w3.org/1999/xlink" x="0px"
	 y="0px" viewBox="0 0 16 16" style="enable-background:new 0 0 16 16;" xml:space="preserve">
<style type="text/css">
	.st0{fill-rule:evenodd;clip-rule:evenodd;fill:#FFFFFF;}
</style>
	<path class="st0" d="M8,0C3.6,0,0,3.6,0,8s3.6,8,8,8s8-3.6,8-8S12.4,0,8,0z M8.5,14.1c-0.2,0.2-0.5,0.4-0.9,0.4
		c-0.3,0-0.6-0.1-0.9-0.4c-0.2-0.2-0.4-0.5-0.4-0.9c0-0.3,0.1-0.6,0.4-0.9C7,12.1,7.3,12,7.6,12c0.3,0,0.6,0.1,0.9,0.4
		c0.2,0.2,0.4,0.5,0.4,0.9C8.9,13.6,8.8,13.9,8.5,14.1z M9.5,8.2C9.2,8.4,9,8.6,8.9,8.8C8.7,9.1,8.6,9.2,8.6,9.4c0,0.2,0,0.4,0,0.8
		c0,0.4-0.3,0.7-1,0.7c-0.3,0-0.6-0.1-0.7-0.2c-0.1-0.1-0.2-0.4-0.2-0.8c0-1,0.4-1.8,1.1-2.4c0,0,0.2-0.1,0.4-0.3
		c0.2-0.2,0.4-0.3,0.5-0.4S9,6.3,9.1,6.1c0.1-0.2,0.2-0.4,0.2-0.6c0-0.4-0.1-0.6-0.4-0.8C8.6,4.5,8.2,4.4,7.8,4.4
		c-0.4,0-0.7,0.1-0.9,0.2C6.7,4.7,6.5,4.9,6.4,5C6.3,5.2,6.2,5.3,6.1,5.4S5.8,5.6,5.6,5.6C5.4,5.6,5.2,5.5,5,5.4
		C4.8,5.2,4.7,5,4.7,4.7c0-0.5,0.3-1,0.8-1.5c0.6-0.5,1.3-0.7,2.4-0.7c1,0,1.9,0.3,2.5,0.8c0.6,0.5,1,1.1,1,1.9
		C11.3,6.2,10.7,7.2,9.5,8.2z"  fill="#fff"/>
</svg>
